<svg xmlns="http://www.w3.org/2000/svg" xmlns:xlink="http://www.w3.org/1999/xlink" width="674" zoomAndPan="magnify" viewBox="72 306 674 118" height="118" preserveAspectRatio="xMidYMid meet" version="1.0"><defs><g/><clipPath id="d00c9b44d9"><rect x="0" width="674" y="0" height="118"/></clipPath></defs><g transform="matrix(1, 0, 0, 1, 72, 306)"><g clip-path="url(#d00c9b44d9)"><g fill="#ffffff" fill-opacity="1"><g transform="translate(0.391201, 83.30246)"><g><path d="M 83.578125 0 L 73.25 0 L 73.25 -46.5625 C 73.25 -47.375 73.265625 -48.859375 73.296875 -51.015625 C 73.335938 -53.171875 73.375 -55.640625 73.40625 -58.421875 C 73.445312 -61.210938 73.46875 -63.8125 73.46875 -66.21875 L 73.25 -66.21875 L 51.0625 0 L 40.53125 0 L 18.34375 -66.109375 L 18.125 -66.109375 C 18.125 -63.703125 18.140625 -61.125 18.171875 -58.375 C 18.210938 -55.625 18.25 -53.171875 18.28125 -51.015625 C 18.320312 -48.859375 18.34375 -47.375 18.34375 -46.5625 L 18.34375 0 L 8.015625 0 L 8.015625 -78.859375 L 23.28125 -78.859375 L 45.796875 -12.1875 L 46.015625 -12.1875 L 68.421875 -78.859375 L 83.578125 -78.859375 Z M 83.578125 0 "/></g></g></g><g fill="#ffffff" fill-opacity="1"><g transform="translate(91.88212, 83.30246)"><g><path d="M 67.65625 -9.4375 L 67.65625 0 L 9.4375 0 L 9.4375 -78.859375 L 66.890625 -78.859375 L 66.890625 -69.40625 L 20.09375 -69.40625 L 20.09375 -45.25 L 63.265625 -45.25 L 63.265625 -35.796875 L 20.09375 -35.796875 L 20.09375 -9.4375 Z M 67.65625 -9.4375 "/></g></g></g><g fill="#ffffff" fill-opacity="1"><g transform="translate(165.140762, 83.30246)"><g><path d="M 60.625 -15.15625 L 60.625 -78.859375 L 70.953125 -78.859375 L 70.953125 0 L 58.984375 0 L 18.890625 -63.703125 L 18.671875 -63.703125 L 18.671875 0 L 8.34375 0 L 8.34375 -78.859375 L 20.984375 -78.859375 L 60.40625 -15.15625 Z M 60.625 -15.15625 "/></g></g></g><g fill="#ffffff" fill-opacity="1"><g transform="translate(244.440133, 83.30246)"><g><path d="M 1.53125 -69.40625 L 1.53125 -78.859375 L 65.5625 -78.859375 L 65.5625 -69.40625 L 38.875 -69.40625 L 38.875 0 L 28.21875 0 L 28.21875 -69.40625 Z M 1.53125 -69.40625 "/></g></g></g><g fill="#ffffff" fill-opacity="1"><g transform="translate(311.548062, 83.30246)"><g><path d="M 67.65625 -9.4375 L 67.65625 0 L 9.4375 0 L 9.4375 -78.859375 L 66.890625 -78.859375 L 66.890625 -69.40625 L 20.09375 -69.40625 L 20.09375 -45.25 L 63.265625 -45.25 L 63.265625 -35.796875 L 20.09375 -35.796875 L 20.09375 -9.4375 Z M 67.65625 -9.4375 "/></g></g></g><g fill="#ffffff" fill-opacity="1"><g transform="translate(384.806703, 83.30246)"><g/></g></g><g fill="#ffffff" fill-opacity="1"><g transform="translate(415.340302, 83.30246)"><g><path d="M 20.09375 -35.796875 L 20.09375 0 L 9.4375 0 L 9.4375 -78.859375 L 64.03125 -78.859375 L 64.03125 -69.40625 L 20.09375 -69.40625 L 20.09375 -45.25 L 58.765625 -45.25 L 58.765625 -35.796875 Z M 20.09375 -35.796875 "/></g></g></g><g fill="#ffffff" fill-opacity="1"><g transform="translate(482.44823, 83.30246)"><g><path d="M 20.3125 -33.828125 L 20.3125 0 L 9.671875 0 L 9.671875 -78.859375 L 46.125 -78.859375 C 49.34375 -78.859375 52.488281 -78.523438 55.5625 -77.859375 C 58.644531 -77.203125 61.429688 -76.085938 63.921875 -74.515625 C 66.410156 -72.941406 68.382812 -70.78125 69.84375 -68.03125 C 71.3125 -65.289062 72.046875 -61.832031 72.046875 -57.65625 C 72.046875 -53.78125 71.476562 -50.632812 70.34375 -48.21875 C 69.207031 -45.800781 67.796875 -43.878906 66.109375 -42.453125 C 64.429688 -41.023438 62.75 -39.796875 61.0625 -38.765625 C 62.601562 -38.179688 64.050781 -37.429688 65.40625 -36.515625 C 66.757812 -35.597656 67.910156 -34.1875 68.859375 -32.28125 C 69.816406 -30.382812 70.367188 -27.601562 70.515625 -23.9375 L 71.171875 -9.671875 C 71.242188 -7.472656 71.515625 -5.84375 71.984375 -4.78125 C 72.460938 -3.71875 73.507812 -2.707031 75.125 -1.75 L 75.125 0 L 62.046875 0 C 61.679688 -1.238281 61.367188 -2.8125 61.109375 -4.71875 C 60.859375 -6.625 60.660156 -8.582031 60.515625 -10.59375 C 60.367188 -12.613281 60.273438 -14.460938 60.234375 -16.140625 C 60.203125 -17.828125 60.1875 -19.035156 60.1875 -19.765625 C 60.1875 -21.960938 59.890625 -24.140625 59.296875 -26.296875 C 58.710938 -28.460938 57.429688 -30.257812 55.453125 -31.6875 C 53.484375 -33.113281 50.375 -33.828125 46.125 -33.828125 Z M 20.3125 -69.734375 L 20.3125 -42.9375 L 45.03125 -42.9375 C 47.664062 -42.9375 50.207031 -43.265625 52.65625 -43.921875 C 55.113281 -44.585938 57.128906 -45.890625 58.703125 -47.828125 C 60.273438 -49.765625 61.0625 -52.675781 61.0625 -56.5625 C 61.0625 -59.632812 60.582031 -62.050781 59.625 -63.8125 C 58.675781 -65.570312 57.453125 -66.867188 55.953125 -67.703125 C 54.453125 -68.546875 52.894531 -69.09375 51.28125 -69.34375 C 49.675781 -69.601562 48.210938 -69.734375 46.890625 -69.734375 Z M 20.3125 -69.734375 "/></g></g></g><g fill="#ffffff" fill-opacity="1"><g transform="translate(561.747602, 83.30246)"><g><path d="M 20.640625 -78.859375 L 20.640625 0 L 10 0 L 10 -78.859375 Z M 20.640625 -78.859375 "/></g></g></g><g fill="#ffffff" fill-opacity="1"><g transform="translate(592.2812, 83.30246)"><g><path d="M 52.390625 -22.953125 L 20.75 -22.953125 L 12.515625 0 L 1.53125 0 L 31.1875 -78.859375 L 43.265625 -78.859375 L 71.828125 0 L 60.1875 0 Z M 24.046875 -32.40625 L 48.546875 -32.40625 L 36.90625 -67.109375 L 36.6875 -67.109375 Z M 24.046875 -32.40625 "/></g></g></g></g></g></svg>