
        <svg xmlns="http://www.w3.org/2000/svg" xmlns:xlink="http://www.w3.org/1999/xlink" version="1.1" width="3162.3571858087794" height="1432.527889981167" viewBox="0 0 3162.3571858087794 1432.527889981167">
			
			<g transform="scale(8.117859290438966) translate(10, 10)">
				<defs id="SvgjsDefs1116"/><g id="SvgjsG1117" featureKey="OvNqIF-0" transform="matrix(1.6687648906493144,0,0,1.6687648906493144,207.5683985324209,-5.301537225867343)" fill="#000"><path xmlns="http://www.w3.org/2000/svg" class="st0" d="M6,57.7c0.9,4.9,5.5,14.8,3.5,9.1c-3.4-9.7-4-13-4.2-23.2C5.1,48.7,5.1,52.5,6,57.7z" style="fill: #000000;"/><path xmlns="http://www.w3.org/2000/svg" class="st0" d="M94,39.5c0.1,0.2,0.1,0.4,0.2,0.6C94.1,39.9,94,39.7,94,39.5z" style="fill: #000000;"/><path xmlns="http://www.w3.org/2000/svg" class="st0" d="M94.2,40.2c0.1,0.4,0.3,0.9,0.4,1.3C94.4,41,94.3,40.6,94.2,40.2z" style="fill: #000000;"/><path xmlns="http://www.w3.org/2000/svg" class="st0" d="M7.8,47.8c0,0.1,0,0.2,0,0.3C7.9,48,7.9,47.9,7.8,47.8L7.8,47.8z" style="fill: #000000;"/><path xmlns="http://www.w3.org/2000/svg" class="st0" d="M5.2,43.4L5.2,43.4c0,0.1,0,0.1,0,0.2C5.2,43.5,5.2,43.4,5.2,43.4z" style="fill: #000000;"/><path xmlns="http://www.w3.org/2000/svg" class="st0" d="M11.7,61.1c-1.1-4-1.8-7.9-2-11.6C9.8,53.5,10.5,57.4,11.7,61.1z" style="fill: #000000;"/><path xmlns="http://www.w3.org/2000/svg" class="st0" d="M50.2,94.2c1.2,0.1,2.5,0.1,3.8,0c-0.6,0-1.2,0-1.8,0c0.3,0,0.5,0,0.9,0c0.6,0,1.2,0,1.8,0  c0.4,0,0.9-0.1,1.3-0.1c-0.4,0-0.7,0-1.1,0c-1.5,0-2.9,0.1-4.2,0.1C49.9,94.1,49,94,48,93.9c0.6,0.1,1.2,0.2,1.8,0.3  c-0.1,0-0.3,0-0.4,0c0.2,0,0.4,0,0.6,0C50.1,94.2,50.1,94.2,50.2,94.2C50.1,94.2,50.1,94.2,50.2,94.2z" style="fill: #000000;"/><path xmlns="http://www.w3.org/2000/svg" class="st0" d="M91.8,68.5c-1.3,2-2.1,3.5-3,5c0.5-0.7,0.9-1.4,1.3-2C90.8,70.6,91.3,69.6,91.8,68.5z" style="fill: #000000;"/><path xmlns="http://www.w3.org/2000/svg" class="st0" d="M63.7,92c-5,1.1-10.2,1.4-15.4,0.9C53.9,93.7,59,93.4,63.7,92z" style="fill: #000000;"/><path xmlns="http://www.w3.org/2000/svg" class="st0" d="M91.2,75.1c4.1-6.6,6.3-14.6,5.8-24c-0.5-7.8-0.6-0.2-0.7,4.3c0-0.2,0-0.5,0-0.7  c0.1-2.8-0.1-5.7-0.6-8.5c0.1,0.9,0.3,1.8,0.4,2.7c0.2,1.5,0.2,3,0.2,4.5C96.1,47.6,95,42,93,37.1c0.4,0.8,0.7,1.6,1,2.4  c-1.2-3.5-2.8-6.7-4.7-9.5c-4.9-7.4-12.4-12.8-22.5-15.3c6.7,2.6,12.6,5.9,17.4,10.3c7.5,8.9,11.1,17.1,11.2,26.5  c-0.1-1.1-0.2-2.2-0.4-3.6c-2-14.1,1.1,6.3-1.4,16c-0.4,1.5-1,3-1.7,4.5c0.3-0.5,0.6-0.9,1-1.4h0c0,0,0,0,0,0l1.2-2.3  c1.1-2.1,1.7-4.6,2.1-7.3c-0.8,7.8-3.7,14.5-8.2,20.1c1.8-2.6,3.4-5.5,4.4-8.6c0,0,0,0.1,0,0.1c0.5-1-0.5,0.3-2,2.6  c-0.8,1.4-1.6,2.7-2.5,3.9c-0.1,0.1-0.2,0.3-0.4,0.4c0.6-0.8,1.1-1.6,1.5-2.4c-0.7,1-1.4,2.1-2.2,3.1C79.9,84,72.4,89.6,63.7,92  c2.8-0.6,5.5-1.5,8-2.6c-10.2,5.1-20.9,5.4-30.5,2.2c2.3,0.6,4.7,1,7.1,1.3c-1.3-0.2-2.6-0.4-4-0.8c-4.2-1-8-2.5-11.4-4.3  c-0.7-0.4-1.5-0.9-2.2-1.4c-5.1-3.6-9.8-8.4-13.8-14c-1.1-1.6-2-3.4-2.9-5.1C9.5,56.1,9.6,42.5,13.9,29c0.4-0.9,0.9-1.9,1.4-2.8  c0.5-0.9,2-3.2,3.6-5.4c0.9-0.7,1.8-1.4,2.9-2.1c-0.6,0-1.1,0-1.5,0.1c0,0,0,0,0,0c5.7-1.7,6.5-1.7,3.6-2.3c4.4-0.4,6.9-3.4,4.6-1  c-3.4,3.4,1.9-0.7,3.8-2.2c1-0.4,2.2-0.9,2.6-1.3c0.2-0.2,0.4-0.3,0.5-0.5c1.4,0.6,2.2-1.4,2.3-3.2c2.2-4.6-0.1-5.5-3.3-5  c0,0,0,0,0,0c0,0,0,0,0,0C33.2,3.4,32,3.7,30.9,4c-0.9,0.3-1.8,0.5-2.5,1c-3,1.9-14.9,10.8-11.4,10.1c-1.1,1-2.3,2.1-2.6,2.5  c0.1-0.1,0.2-0.2,0.3-0.2C14,18.2,13,19.2,12.5,20c-5.8,9.3-0.3,4.4,2.7,0.3c0.2-0.1,0.6-0.1,1-0.3c0.1,0,0.1,0,0.2-0.1  c-0.1,0.1-0.2,0.1-0.3,0.2c-3.3,3.7-7.6,11.4-10,17c0.5-2.4,1-4.7,1.4-7.3C1.7,40.1,3.9,51.1,6.7,62.1C4.8,54,4.4,51.7,5.2,43.4  c0.1-1.4,0.3-2.8,0.5-4c5.6-5.1,2.7-9.8,11.6-17.4C11.3,31,9,39.9,9.7,49.6c-0.3-6.7,1-13.6,4.1-20.5c-4,11.8-4.6,24.5-0.9,35.6  c-0.5-1.2-0.9-2.3-1.3-3.5c0.5,1.9,1.1,3.8,1.8,5.8c-0.3-0.5-0.5-0.9-0.8-1.4l2.3,4.9c1,2.1,2.1,4.1,3.4,5.9  c-0.7-0.9-1.4-1.8-2.2-2.7c2.4,3.4,4.2,5.6,6.2,7.6c1.4,1.5,2.8,2.8,4.3,4c0.7,0.6,1.4,1.1,2.2,1.8c8.6,5.3,17.1,8.4,25.8,8.3  c-6.8,0.4-13.5-0.9-20.4-4.5C11.5,78.9,4.9,53.9,11.8,30.2c-3,10.1-3.9,14.1-2.5,24.7c1.8,14.2-1-3-1.4-6.8c0.6,9.8,2.9,18,6.4,24.6  c-0.6-0.9-1.2-1.8-1.7-2.6C9.4,63.5,7.7,56,7.7,47.8c0.1-7.7,4.3-17.9-0.1-7.8l0,0c0,0,0,0,0,0c0,0,0,0,0,0h0c0,0,0,0,0,0  c-2.4,2.8-2.2,9.5-1.7,12.9c1.6,12.3,7,20.8,11.1,25.7c3.2,4.3,7,7.8,11.2,10.5c-3.5-2.1-6.6-4.5-9.8-8c-1.9-2-8.1-11.4-7.7-10.4  c4.3,12.4,17.1,21.7,29.6,24.7c20.2,4.9,39.4-2.1,49.7-18.2C90.4,76.5,90.8,75.8,91.2,75.1z M26.9,13.7c-0.2,0.2-0.5,0.4-0.8,0.5  C26.4,14,26.6,13.9,26.9,13.7z M28.8,12.1C28.8,12,28.8,12,28.8,12.1C28.8,12,28.8,12.1,28.8,12.1C28.8,12.1,28.8,12.1,28.8,12.1z   M24,11.3C22.3,9.9,28,8.8,24,11.3L24,11.3z M35.5,11.2C37,9.9,36.2,11.1,35.5,11.2L35.5,11.2z M14,28.6L14,28.6  C14,28.6,14,28.6,14,28.6C14,28.6,14,28.6,14,28.6z M84.2,79.7c0.5-0.6,1-1.1,1.4-1.6c-1.5,2-2.9,3.7-3.9,4.6  c-0.3,0.3-0.6,0.5-0.9,0.8C81.3,82.8,82.4,81.6,84.2,79.7z M49.4,94.1c-4.7-0.3-9-1.4-13.2-3.3c3.8,1.6,7.7,2.6,11.8,3  c-3.7-0.6-7.4-1.8-10.8-3.5c0.9,0.3,1.8,0.6,2.7,0.9c4.9,1.8,10.1,2.8,15.2,2.8c0.4,0,0.8,0,1.1,0c0,0,0,0-0.1,0c0.1,0,0.3,0,0.4,0  c0.3,0,0.6,0,0.8,0c-0.8,0.1-1.7,0.1-2.5,0.1c-0.3,0-0.6,0-0.9,0c1.2,0,2.4-0.1,3.6-0.2c1.1,0,2-0.1,2.8-0.1  c-3.4,0.6-6.8,0.7-10.1,0.3c0,0-0.1,0-0.1,0C46.5,94.2,47.2,94.2,49.4,94.1z M69.3,91.8c0.1,0,0.2-0.1,0.4-0.1  c-0.3,0.1-0.6,0.2-0.9,0.3C69,91.9,69.1,91.9,69.3,91.8z M83,84.6c-1.5,1.5-3.1,2.8-4.7,4c-4.9,3.3-10.8,5.6-17.6,6.5  C55.2,95.8,50,95.7,45,94.8C58.4,97,72.8,93.3,83,84.6z M7.2,49.1c0,1.2,0.1,2.5,0.3,3.9C8,57.7,9,62,10.3,66  C8.1,61.3,7.1,56.5,7.2,49.1z M51,96c9.5,0.4,19-2.1,27-7.2C70.5,94.1,61.4,96.7,51,96z" style="fill: #000000;"/><path xmlns="http://www.w3.org/2000/svg" class="st0" d="M95.2,44.1c0,0.1,0.1,0.3,0.1,0.4C95.3,44.3,95.3,44.2,95.2,44.1z" style="fill: #000000;"/><path xmlns="http://www.w3.org/2000/svg" class="st0" d="M95.3,44.5c0.1,0.6,0.2,1.1,0.3,1.7C95.6,45.6,95.4,45,95.3,44.5z" style="fill: #000000;"/><path xmlns="http://www.w3.org/2000/svg" class="st0" d="M94.6,41.5c0.2,0.9,0.5,1.7,0.7,2.6C95,43.2,94.8,42.3,94.6,41.5z" style="fill: #000000;"/></g><g id="SvgjsG1118" featureKey="1cK3sX-0" transform="matrix(2.879804978385518,0,0,2.879804978385518,-4.204515721598203,6.757901679599147)" fill="#000"><path d="M15.22 20 l-1.88 0 l0 -8.48 c0 -0.42 0.04 -2.24 0.04 -3.58 l-0.04 0 l-4.04 12.06 l-1.92 0 l-4.04 -12.04 l-0.04 0 c0 1.32 0.04 3.14 0.04 3.56 l0 8.48 l-1.88 0 l0 -14.36 l2.78 0 l4.1 12.14 l0.04 0 l4.08 -12.14 l2.76 0 l0 14.36 z M28.98 18.28 l0 1.72 l-10.6 0 l0 -14.36 l10.46 0 l0 1.72 l-8.52 0 l0 4.4 l7.86 0 l0 1.72 l-7.86 0 l0 4.8 l8.66 0 z M41.04 17.240000000000002 l0 -11.6 l1.88 0 l0 14.36 l-2.18 0 l-7.3 -11.6 l-0.04 0 l0 11.6 l-1.88 0 l0 -14.36 l2.3 0 l7.18 11.6 l0.04 0 z M44.72 7.359999999999999 l0 -1.72 l11.66 0 l0 1.72 l-4.86 0 l0 12.64 l-1.94 0 l0 -12.64 l-4.86 0 z M68.97999999999999 18.28 l0 1.72 l-10.6 0 l0 -14.36 l10.46 0 l0 1.72 l-8.52 0 l0 4.4 l7.86 0 l0 1.72 l-7.86 0 l0 4.8 l8.66 0 z"/></g><g id="SvgjsG1119" featureKey="1cK3sX-1" transform="matrix(4.461781465687897,0,0,4.461781465687897,-7.674264248635775,48.835553129232352)" fill="#000"><path d="M3.66 13.48 l0 6.52 l-1.94 0 l0 -14.36 l9.94 0 l0 1.72 l-8 0 l0 4.4 l7.04 0 l0 1.72 l-7.04 0 z M15.920000000000002 13.84 l0 6.16 l-1.94 0 l0 -14.36 l6.64 0 c2.36 0 4.72 0.82 4.72 3.86 c0 2.12 -1.08 2.9 -2 3.44 c0.82 0.34 1.64 0.7 1.72 2.7 l0.12 2.6 c0.02 0.8 0.12 1.1 0.72 1.44 l0 0.32 l-2.38 0 c-0.28 -0.88 -0.34 -3.06 -0.34 -3.6 c0 -1.18 -0.24 -2.56 -2.56 -2.56 l-4.7 0 z M15.920000000000002 7.300000000000001 l0 4.88 l4.5 0 c1.42 0 2.92 -0.36 2.92 -2.48 c0 -2.22 -1.62 -2.4 -2.58 -2.4 l-4.84 0 z M30.42 5.640000000000001 l0 14.36 l-1.94 0 l0 -14.36 l1.94 0 z M41.76 15.82 l-5.76 0 l-1.5 4.18 l-2 0 l5.4 -14.36 l2.2 0 l5.2 14.36 l-2.12 0 z M36.6 14.1 l4.46 0 l-2.12 -6.32 l-0.04 0 z"/></g>
			</g>
		</svg>
	